<svg width="28" height="28" viewBox="0 0 28 28" fill="none" xmlns="http://www.w3.org/2000/svg">
<g clip-path="url(#clip0_15_18)">
<path d="M9.75408 0.920933C6.95645 1.89146 4.54377 3.73355 2.87044 6.17663C1.1971 8.6197 0.351312 11.535 0.457299 14.4943C0.563285 17.4536 1.61546 20.3009 3.45928 22.618C5.3031 24.9351 7.84137 26.5999 10.7013 27.3678C13.0198 27.9661 15.449 27.9924 17.78 27.4444C19.8917 26.9701 21.8439 25.9555 23.4456 24.5C25.1127 22.9389 26.3227 20.9529 26.9456 18.7556C27.6227 16.3661 27.7432 13.8533 27.2978 11.41H14.2778V16.8109H21.8181C21.6674 17.6723 21.3445 18.4945 20.8687 19.2282C20.3928 19.9619 19.7738 20.592 19.0488 21.0809C18.128 21.69 17.0901 22.0998 16.0016 22.2841C14.9099 22.4871 13.7901 22.4871 12.6985 22.2841C11.592 22.0553 10.5453 21.5986 9.62502 20.9431C8.14659 19.8966 7.0365 18.4098 6.45314 16.695C5.85993 14.948 5.85993 13.0541 6.45314 11.3072C6.86839 10.0827 7.55484 8.96773 8.46127 8.04562C9.49856 6.971 10.8118 6.20286 12.2569 5.82548C13.702 5.44809 15.2232 5.47603 16.6535 5.90625C17.7708 6.24923 18.7925 6.84848 19.6372 7.65625C20.4874 6.81041 21.3362 5.96239 22.1835 5.11218C22.621 4.655 23.0978 4.21968 23.5288 3.75156C22.2394 2.55166 20.7259 1.618 19.075 1.00406C16.0687 -0.0875264 12.7793 -0.116862 9.75408 0.920933Z" fill="white"/>
<path d="M9.75407 0.920928C12.7791 -0.117572 16.0685 -0.0890089 19.075 1.00187C20.7262 1.61997 22.239 2.55814 23.5266 3.76249C23.0891 4.23062 22.6275 4.66812 22.1813 5.12312C21.3325 5.97041 20.4845 6.81478 19.6372 7.65624C18.7925 6.84848 17.7708 6.24922 16.6534 5.90624C15.2236 5.47452 13.7026 5.44496 12.2571 5.8208C10.8116 6.19665 9.4975 6.96338 8.45907 8.03687C7.55265 8.95898 6.86619 10.0739 6.45095 11.2984L1.91626 7.78749C3.5394 4.56872 6.34977 2.10661 9.75407 0.920928Z" fill="#E33629"/>
<path d="M0.713138 11.2656C0.956872 10.0577 1.36152 8.88788 1.91626 7.78751L6.45095 11.3072C5.85773 13.0541 5.85773 14.9481 6.45095 16.695C4.94012 17.8617 3.42856 19.0342 1.91626 20.2125C0.52753 17.4482 0.103991 14.2986 0.713138 11.2656Z" fill="#F8BD00"/>
<path d="M14.2778 11.4078H27.2978C27.7432 13.8511 27.6227 16.364 26.9456 18.7534C26.3227 20.9507 25.1127 22.9367 23.4456 24.4978C21.9822 23.3559 20.5122 22.2228 19.0488 21.0809C19.7743 20.5915 20.3936 19.9607 20.8694 19.2262C21.3453 18.4917 21.668 17.6687 21.8181 16.8066H14.2778C14.2756 15.0084 14.2778 13.2081 14.2778 11.4078Z" fill="#587DBD"/>
</g>
<defs>
<clipPath id="clip0_15_18">
<rect width="28" height="28" fill="white"/>
</clipPath>
</defs>
</svg>
