<svg width="28" height="28" viewBox="0 0 28 28" fill="none" xmlns="http://www.w3.org/2000/svg">
<path d="M0.3125 13.912C0.3125 14.4745 0.7575 14.8145 1.3085 14.8145C1.6485 14.8145 1.918 14.6505 2.1525 14.416L13.59 3.99801C13.7185 3.86901 13.8595 3.82201 14.0115 3.82201C14.1525 3.82201 14.2815 3.86901 14.4215 3.99801L25.8475 14.416C26.0935 14.6505 26.363 14.8145 26.6915 14.8145C27.242 14.8145 27.6875 14.4745 27.6875 13.912C27.6875 13.5605 27.5585 13.338 27.336 13.1385L23.281 9.44751V2.52151C23.281 2.00601 22.953 1.67801 22.4375 1.67801H20.9025C20.3985 1.67801 20.047 2.00601 20.047 2.52151V6.50601L15.406 2.26351C14.996 1.87701 14.492 1.69001 14 1.69001C13.5075 1.69001 13.0155 1.87751 12.5935 2.26401L0.664 13.1385C0.453 13.338 0.3125 13.5605 0.3125 13.912ZM3.664 23.744C3.664 25.373 4.6485 26.3225 6.3005 26.3225H11.047V17.99C11.047 17.451 11.41 17.1 11.949 17.1H16.086C16.625 17.1 16.9765 17.451 16.9765 17.99V26.3225H21.711C23.363 26.3225 24.336 25.373 24.336 23.744V15.166L14.3865 6.20101C14.2575 6.08401 14.117 6.02551 13.9765 6.02551C13.8475 6.02551 13.7185 6.08401 13.578 6.21301L3.664 15.2245V23.744Z" fill="black"/>
</svg>
