<svg width="80" height="81" viewBox="0 0 80 81" fill="none" xmlns="http://www.w3.org/2000/svg">
<path fill-rule="evenodd" clip-rule="evenodd" d="M33.7778 33.2222C33.7778 31.572 34.4333 29.9893 35.6002 28.8224C36.7671 27.6556 38.3498 27 40 27C41.6502 27 43.2329 27.6556 44.3998 28.8224C45.5667 29.9893 46.2222 31.572 46.2222 33.2222C46.2222 34.8725 45.5667 36.4551 44.3998 37.622C43.2329 38.7889 41.6502 39.4444 40 39.4444C38.3498 39.4444 36.7671 38.7889 35.6002 37.622C34.4333 36.4551 33.7778 34.8725 33.7778 33.2222ZM33.7778 42.5556C31.715 42.5556 29.7367 43.375 28.2781 44.8336C26.8194 46.2922 26 48.2705 26 50.3333C26 51.571 26.4917 52.758 27.3668 53.6332C28.242 54.5083 29.429 55 30.6667 55H49.3333C50.571 55 51.758 54.5083 52.6332 53.6332C53.5083 52.758 54 51.571 54 50.3333C54 48.2705 53.1806 46.2922 51.7219 44.8336C50.2633 43.375 48.285 42.5556 46.2222 42.5556H33.7778Z" fill="black"/>
</svg>
